# Blender v2.77 (sub 0) OBJ File: ''
# www.blender.org
mtllib PortalEffect.mtl
o Cube_Cube.001
v 1.000000 -1.000001 -0.000000
v 1.000000 -1.000001 -2.000000
v -1.000001 -0.999999 -2.000000
v -1.000000 -0.999999 -0.000000
v 1.000000 0.999999 0.000000
v -1.000000 1.000001 0.000000
v -0.999999 1.000001 -2.000000
v 1.000000 0.999999 -2.000000
vt 0.5000 0.5000
vt 0.5001 0.5000
vt 0.5001 0.5000
vt 0.5000 0.5000
vt 0.5000 0.5001
vt 0.5000 0.5000
vt 0.5001 0.5000
vt 0.5001 0.5001
vt 0.0002 0.0001
vt 1.0002 0.0001
vt 1.0002 1.0000
vt 0.0002 1.0000
vt 0.5000 0.4999
vt 0.5001 0.4999
vn 0.0000 1.0000 0.0000
vn -0.0000 -1.0000 -0.0000
vn 1.0000 -0.0000 0.0000
vn -0.0000 -0.0000 1.0000
vn -1.0000 0.0000 0.0000
usemtl Material.001
s 1
f 1/1/1 2/2/1 3/3/1 4/4/1
f 5/5/2 6/6/2 7/7/2 8/8/2
f 4/4/3 3/3/3 7/7/3 6/6/3
f 3/9/4 2/10/4 8/11/4 7/12/4
f 5/13/5 8/14/5 2/2/5 1/1/5
